<?xml version="1.0" encoding="UTF-8"?>
<svg id="Layer_1" data-name="Layer 1" xmlns="http://www.w3.org/2000/svg" viewBox="0 0 212.84 82.33">
  <defs>
    <style>
      .cls-1 {
        fill: #fde0c6;
      }

      .cls-1, .cls-2, .cls-3 {
        stroke-width: 0px;
      }

      .cls-2 {
        fill: #f38e27;
      }

      .cls-3 {
        fill: #fff;
      }
    </style>
  </defs>
  <rect class="cls-1" x="0" y="0" width="91.16" height="82.33" rx="27.7" ry="27.7"/>
  <path class="cls-2" d="M11.4,41.2c.93,7.89,8.51,9.25,8.51,9.25l8.68.34c-4.85.93-5.59,4.79-5.59,4.79v17.97c24.9-1.83,22.73-23.1,22.73-23.1C45.37,17.34,11.4,15.76,11.4,15.76v25.44Z"/>
  <path class="cls-3" d="M79.93,41.2c-.93,7.89-8.51,9.25-8.51,9.25l-8.68.34c4.85.93,5.59,4.79,5.59,4.79v17.97c-24.9-1.83-22.73-23.1-22.73-23.1.36-33.11,34.33-34.69,34.33-34.69v25.44Z"/>
  <circle class="cls-2" cx="45.55" cy="15.61" r="5.61"/>
  <g>
    <path class="cls-3" d="M106.35,26.21h8.04v.65c0,.55-.32.87-.89.87h-5.34v3.72h5.19v.62c0,.57-.32.89-.89.89h-4.31v3.94c0,.55-.35.9-.9.9h-.92v-11.59Z"/>
    <path class="cls-3" d="M114.8,32c0-3.31,2.45-6.03,5.97-6.03s6,2.72,6,6.03-2.47,6.03-6,6.03-5.97-2.71-5.97-6.03ZM120.77,36.47c2.39,0,4.18-2.03,4.18-4.46s-1.79-4.46-4.18-4.46-4.15,2.06-4.15,4.46,1.77,4.46,4.15,4.46Z"/>
    <path class="cls-3" d="M128.78,33.17v-6.97h.92c.55,0,.9.35.9.9v6c0,2.66,1.95,3.34,3.12,3.34s3.1-.68,3.1-3.34v-6c0-.55.36-.9.9-.9h.9v6.97c0,2.94-1.93,4.84-4.91,4.84s-4.94-1.9-4.94-4.84Z"/>
    <path class="cls-3" d="M141.16,26.21h.63l7.65,8.01v-7.08c0-.57.36-.93.93-.93h.89v11.59h-.65l-7.63-8.01v7.08c0,.57-.36.93-.92.93h-.9v-11.59Z"/>
    <path class="cls-3" d="M153.79,26.21h4.51c3.45,0,5.78,2.01,5.78,5.79s-2.31,5.81-5.78,5.79h-4.51v-11.59ZM158.13,36.28c1.55,0,4.12-.68,4.12-4.26s-2.58-4.31-4.12-4.31h-2.52v8.57h2.52Z"/>
    <path class="cls-3" d="M170.02,26.21h.57l5.76,11.59h-1.3c-.46,0-.82-.22-1.03-.63l-.74-1.57h-5.94l-.76,1.57c-.19.41-.57.63-1.03.63h-1.28l5.75-11.59ZM172.69,34.24l-2.39-5.1-2.38,5.1h4.77Z"/>
    <path class="cls-3" d="M178.3,27.73h-3.42v-.62c0-.55.35-.9.9-.9h7.79v.62c0,.54-.36.9-.9.9h-2.55v9.17c0,.55-.36.9-.9.9h-.92v-10.07Z"/>
    <path class="cls-3" d="M184.75,36.83v-10.62h.92c.54,0,.9.35.9.9v10.69h-.92c-.57,0-.9-.35-.9-.97Z"/>
    <path class="cls-3" d="M188.76,32c0-3.31,2.45-6.03,5.97-6.03s6,2.72,6,6.03-2.47,6.03-6,6.03-5.97-2.71-5.97-6.03ZM194.73,36.47c2.39,0,4.18-2.03,4.18-4.46s-1.79-4.46-4.18-4.46-4.15,2.06-4.15,4.46,1.77,4.46,4.15,4.46Z"/>
    <path class="cls-3" d="M202.74,26.21h.63l7.65,8.01v-7.08c0-.57.36-.93.93-.93h.89v11.59h-.65l-7.63-8.01v7.08c0,.57-.36.93-.92.93h-.9v-11.59Z"/>
    <path class="cls-3" d="M106.35,54.76l.48-.57c.36-.46.92-.51,1.53-.24,1.09.51,2.39.85,3.7.85,1.99,0,3.09-.73,3.09-1.84,0-1.35-1.64-1.62-3.53-1.93-1.66-.27-5.27-.6-5.27-3.25s2.92-3.45,5.19-3.45c2.04,0,3.65.52,4.96,1.33l-.48.55c-.36.46-.94.54-1.53.3-.99-.41-1.97-.63-3.07-.63-1.16,0-2.88.4-2.88,1.82s2.37,1.6,3.91,1.84c2.06.28,4.89.74,4.89,3.36,0,2.31-2.14,3.45-5.21,3.45-2.58,0-4.31-.65-5.78-1.6Z"/>
    <path class="cls-3" d="M119.27,55.39v-10.62h1.11c.65,0,1.09.35,1.09.9v10.69h-1.11c-.69,0-1.09-.35-1.09-.97Z"/>
    <path class="cls-3" d="M128.41,50.63l-5.25-5.86h1.89c.5,0,.94.17,1.22.52l3.46,4.01,3.42-4.01c.31-.35.71-.52,1.2-.52h1.91l-5.21,5.86,5.14,5.73h-1.93c-.52,0-.92-.17-1.22-.52l-3.3-3.86-3.34,3.86c-.29.35-.71.52-1.2.52h-1.91l5.14-5.73Z"/>
    <path class="cls-3" d="M139.95,46.29h-4.12v-.62c0-.55.42-.9,1.09-.9h9.39v.62c0,.54-.44.9-1.09.9h-3.07v9.17c0,.55-.44.9-1.09.9h-1.11v-10.07Z"/>
    <path class="cls-3" d="M151.65,56.36v-4.4l-5.27-7.19h1.72c.53,0,.95.21,1.22.59l3.4,4.86,3.38-4.86c.27-.4.69-.59,1.26-.59h1.68l-5.17,7.19v3.42c0,.63-.4.98-1.16.98h-1.05Z"/>
    <path class="cls-3" d="M159.92,52.89c-.11-1.06.13-1.93.73-3.02.4-.67,2.08-2.75,3.61-4.54.36-.4.78-.57,1.36-.57h1.76l-3.89,4.39c.69-.46,1.43-.55,2.1-.55,2.62,0,4.56,1.66,4.56,3.9,0,2.37-2.29,4.04-5.15,4.04s-4.87-1.69-5.06-3.63ZM164.99,55.01c1.62,0,2.96-1.08,2.96-2.5s-1.32-2.5-2.96-2.5-2.94,1.11-2.94,2.5,1.36,2.5,2.94,2.5Z"/>
  </g>
</svg>