<?xml version="1.0" encoding="UTF-8"?>
<svg id="Layer_2" data-name="Layer 2" xmlns="http://www.w3.org/2000/svg" viewBox="0 0 363.51 117.28">
  <defs>
    <style>
      .cls-1 {
        fill: #7a2a85;
      }

      .cls-1, .cls-2, .cls-3 {
        stroke-width: 0px;
      }

      .cls-2 {
        fill: #7a2a84;
      }

      .cls-3 {
        fill: #fff;
      }
    </style>
  </defs>
  <g id="Layer_1-2" data-name="Layer 1">
    <rect class="cls-1" width="116.19" height="116.92"/>
    <path class="cls-3" d="m29.86,18.28c-3.4-2.85-6.95-5.48-10.67-7.88C16.44,8.61,5.35,2.38,2.24.6c0,0,.16,14.71.16,14.71.81,22.59,14.61,48.58,38.77,52,0,0,.6-1.48.6-1.48-11.36-8.18-17.7-20.11-20.51-33.12,7.82,5.72,15.22,12.09,21.19,19.57,1.61,1.92,3.09,3.99,4.3,6.15l-.03.15s.07,0,.11,0c1.41,2.55,2.45,5.23,2.94,7.99,0,.03-.01.06,0,.09.05,1.52,0,2.89-.96,4.82-.8,1.61-1.77,3.1-2.89,4.82-1.12,1.73-3.14,3.76-4.37,5.24-.06.07-.18.22-.36.45-.18.23-.3.37-.36.45.98-2.59,3.5-5.28,3.17-9.03-.19-2.09-1.93-3.86-2.89-4.82-.09-.09-.22-.17-.36-.25,0,0-.01,0-.02-.01h0s-.04-.02-.06-.03c-.63-.31-1.59-.67-2.62-.83-9.85-2.9-21.03.59-27.61,8.69C3.21,85.04.4,96.29.86,107.4l.52,9.88,8.89-3.49c10.87-4.24,20.63-11.33,29.45-18.94,6.77-5.85,13.28-12.48,16.16-21.21,7.05-22.02-10.37-42.17-26.01-55.36Zm7.72,63.72c-.15,1.15-.52,2.35-1.13,3.58-.6,1.23-1.4,2.41-2.39,3.52-1.02,1.15-2.11,2.1-3.26,2.85-1.15.75-2.29,1.27-3.4,1.56-1.12.3-2.19.37-3.23.22-1.04-.15-1.94-.57-2.71-1.24-.76-.68-1.3-1.52-1.6-2.53-.3-1.01-.38-2.09-.25-3.26.14-1.17.51-2.38,1.11-3.64.6-1.26,1.42-2.47,2.44-3.62s2.12-2.09,3.3-2.82c1.18-.72,2.34-1.23,3.48-1.5,1.14-.28,2.22-.31,3.24-.11s1.9.62,2.64,1.28c.77.68,1.29,1.51,1.57,2.5.28.99.35,2.06.2,3.21Z"/>
    <path class="cls-3" d="m59.71,73.64c2.88,8.73,9.39,15.36,16.16,21.21,8.81,7.61,18.57,14.71,29.45,18.94l8.89,3.49.52-9.88c.46-11.11-2.35-22.37-9.55-31.24-6.58-8.1-17.76-11.59-27.61-8.69-1.02.16-1.99.52-2.62.83-.02,0-.04.01-.06.02h0s-.01.02-.02.02c-.14.07-.27.16-.36.25-.96.96-2.71,2.74-2.89,4.82-.33,3.74,2.19,6.43,3.17,9.03-.06-.07-.19-.22-.36-.45-.18-.23-.3-.37-.36-.45-1.22-1.48-3.24-3.51-4.37-5.24-1.12-1.73-2.09-3.22-2.89-4.82-.96-1.93-1.01-3.31-.96-4.82,0-.03,0-.06,0-.09.49-2.75,1.53-5.44,2.94-7.99.04,0,.07,0,.11,0l-.03-.15c1.21-2.17,2.69-4.24,4.3-6.15,5.97-7.49,13.37-13.86,21.19-19.57-2.81,13.01-9.15,24.94-20.51,33.12,0,0,.6,1.48.6,1.48,24.15-3.42,37.95-29.41,38.77-52,0,0,.16-14.71.16-14.71-3.11,1.77-14.19,8-16.94,9.8-3.73,2.4-7.28,5.03-10.67,7.88-15.65,13.19-33.07,33.34-26.01,55.36Zm18.5,5.15c.28-.99.8-1.82,1.57-2.5.74-.66,1.62-1.08,2.64-1.28s2.1-.16,3.24.11c1.14.27,2.3.78,3.48,1.5,1.18.73,2.27,1.66,3.3,2.82s1.84,2.36,2.44,3.62c.61,1.26.98,2.48,1.11,3.64.13,1.17.05,2.25-.25,3.26-.3,1.01-.84,1.85-1.6,2.53-.77.68-1.67,1.09-2.71,1.24-1.04.15-2.12.08-3.23-.22-1.12-.29-2.25-.82-3.4-1.56-1.15-.75-2.24-1.7-3.26-2.85-.99-1.12-1.79-2.29-2.39-3.52-.6-1.23-.98-2.43-1.13-3.58s-.08-2.23.2-3.21Z"/>
    <g>
      <path class="cls-2" d="m137.63,34.42h17.06v1.38c0,1.18-.67,1.85-1.88,1.85h-11.32v7.89h11.02v1.31c0,1.21-.67,1.88-1.88,1.88h-9.14v8.36c0,1.18-.74,1.92-1.91,1.92h-1.95v-24.58Z"/>
      <path class="cls-2" d="m155.56,46.71c0-7.02,5.21-12.8,12.66-12.8s12.73,5.78,12.73,12.8-5.24,12.8-12.73,12.8-12.66-5.74-12.66-12.8Zm12.66,9.47c5.07,0,8.87-4.3,8.87-9.47s-3.79-9.47-8.87-9.47-8.8,4.37-8.8,9.47,3.76,9.47,8.8,9.47Z"/>
      <path class="cls-2" d="m185.21,49.2v-14.78h1.95c1.18,0,1.91.74,1.91,1.92v12.73c0,5.64,4.13,7.09,6.62,7.09s6.58-1.44,6.58-7.09v-12.73c0-1.18.77-1.92,1.91-1.92h1.91v14.78c0,6.25-4.1,10.28-10.41,10.28s-10.48-4.03-10.48-10.28Z"/>
      <path class="cls-2" d="m211.47,34.42h1.34l16.22,16.99v-15.01c0-1.21.77-1.98,1.98-1.98h1.88v24.58h-1.38l-16.19-16.99v15.01c0,1.21-.77,1.98-1.95,1.98h-1.92v-24.58Z"/>
      <path class="cls-2" d="m238.26,34.42h9.57c7.32,0,12.26,4.26,12.26,12.29s-4.9,12.33-12.26,12.29h-9.57v-24.58Zm9.2,21.36c3.29,0,8.73-1.45,8.73-9.04s-5.47-9.13-8.73-9.13h-5.34v18.17h5.34Z"/>
      <path class="cls-2" d="m272.68,34.42h1.21l12.22,24.58h-2.75c-.97,0-1.75-.47-2.18-1.34l-1.58-3.33h-12.59l-1.61,3.33c-.4.87-1.21,1.34-2.18,1.34h-2.72l12.19-24.58Zm5.68,17.03l-5.07-10.81-5.04,10.81h10.11Z"/>
      <path class="cls-2" d="m290.24,37.65h-7.25v-1.31c0-1.18.74-1.92,1.91-1.92h16.52v1.31c0,1.14-.77,1.91-1.91,1.91h-5.41v19.45c0,1.18-.77,1.92-1.91,1.92h-1.95v-21.36Z"/>
      <path class="cls-2" d="m303.94,56.96v-22.54h1.95c1.14,0,1.91.74,1.91,1.92v22.67h-1.95c-1.21,0-1.91-.74-1.91-2.05Z"/>
      <path class="cls-2" d="m312.43,46.71c0-7.02,5.21-12.8,12.66-12.8s12.73,5.78,12.73,12.8-5.24,12.8-12.73,12.8-12.66-5.74-12.66-12.8Zm12.66,9.47c5.07,0,8.87-4.3,8.87-9.47s-3.79-9.47-8.87-9.47-8.8,4.37-8.8,9.47,3.76,9.47,8.8,9.47Z"/>
      <path class="cls-2" d="m342.08,34.42h1.34l16.22,16.99v-15.01c0-1.21.77-1.98,1.98-1.98h1.88v24.58h-1.38l-16.19-16.99v15.01c0,1.21-.77,1.98-1.95,1.98h-1.92v-24.58Z"/>
      <path class="cls-2" d="m136.48,95.48l1.01-1.21c.77-.97,1.94-1.07,3.24-.5,2.31,1.08,5.06,1.81,7.86,1.81,4.21,0,6.56-1.54,6.56-3.9,0-2.85-3.48-3.43-7.49-4.1-3.52-.57-11.18-1.28-11.18-6.88s6.2-7.32,11.02-7.32c4.33,0,7.73,1.11,10.53,2.82l-1.01,1.18c-.77.97-1.98,1.14-3.24.64-2.11-.87-4.17-1.34-6.52-1.34-2.47,0-6.12.84-6.12,3.86s5.02,3.39,8.3,3.9c4.37.6,10.37,1.58,10.37,7.12,0,4.9-4.54,7.32-11.05,7.32-5.47,0-9.15-1.38-12.27-3.39Z"/>
      <path class="cls-2" d="m165.03,96.32v-22.54h2.35c1.38,0,2.31.74,2.31,1.91v22.67h-2.35c-1.46,0-2.31-.74-2.31-2.05Z"/>
      <path class="cls-2" d="m184.43,86.21l-11.14-12.43h4.01c1.05,0,1.98.37,2.59,1.11l7.33,8.5,7.25-8.5c.65-.74,1.5-1.11,2.55-1.11h4.05l-11.06,12.43,10.89,12.16h-4.09c-1.09,0-1.94-.37-2.59-1.11l-7.01-8.19-7.09,8.19c-.61.74-1.5,1.11-2.55,1.11h-4.05l10.89-12.16Z"/>
      <path class="cls-2" d="m208.89,77.01h-8.75v-1.31c0-1.18.89-1.91,2.31-1.91h19.92v1.31c0,1.14-.93,1.91-2.31,1.91h-6.52v19.45c0,1.18-.93,1.91-2.31,1.91h-2.35v-21.36Z"/>
      <path class="cls-2" d="m233.72,98.37v-9.34l-11.18-15.25h3.64c1.13,0,2.03.44,2.59,1.24l7.21,10.31,7.17-10.31c.57-.84,1.46-1.24,2.67-1.24h3.56l-10.97,15.25v7.25c0,1.34-.85,2.08-2.47,2.08h-2.23Z"/>
      <path class="cls-2" d="m251.25,91.02c-.24-2.25.28-4.1,1.54-6.41.85-1.41,4.41-5.84,7.65-9.64.77-.84,1.66-1.21,2.88-1.21h3.73l-8.26,9.3c1.46-.97,3.04-1.18,4.46-1.18,5.55,0,9.68,3.53,9.68,8.26,0,5.04-4.86,8.56-10.93,8.56s-10.33-3.59-10.73-7.69Zm10.77,4.5c3.44,0,6.28-2.28,6.28-5.31s-2.79-5.31-6.28-5.31-6.24,2.35-6.24,5.31,2.88,5.31,6.24,5.31Z"/>
    </g>
  </g>
</svg>