<?xml version="1.0" encoding="UTF-8"?>
<svg id="Layer_1" data-name="Layer 1" xmlns="http://www.w3.org/2000/svg" viewBox="0 0 319.03 123.4">
  <defs>
    <style>
      .cls-1 {
        opacity: .3;
      }

      .cls-1, .cls-2, .cls-3, .cls-4 {
        stroke-width: 0px;
      }

      .cls-1, .cls-4 {
        fill: #582260;
      }

      .cls-2 {
        fill: #fff;
      }

      .cls-3 {
        fill: #582060;
      }
    </style>
  </defs>
  <rect class="cls-1" x="0" y="0" width="136.64" height="123.4" rx="40.1" ry="40.1"/>
  <path class="cls-4" d="M17.08,61.76c1.39,11.82,12.75,13.87,12.75,13.87l13.02.5c-7.27,1.39-8.38,7.19-8.38,7.19v26.93c37.32-2.74,34.08-34.62,34.08-34.62-.54-49.63-51.46-52-51.46-52v38.13Z"/>
  <path class="cls-2" d="M119.81,61.76c-1.39,11.82-12.75,13.87-12.75,13.87l-13.02.5c7.27,1.39,8.38,7.19,8.38,7.19v26.93c-37.32-2.74-34.08-34.62-34.08-34.62.54-49.63,51.46-52,51.46-52v38.13Z"/>
  <circle class="cls-4" cx="68.28" cy="23.4" r="8.41"/>
  <g>
    <path class="cls-3" d="M159.41,39.28h12.06v.97c0,.83-.47,1.31-1.33,1.31h-8v5.58h7.78v.93c0,.85-.47,1.33-1.33,1.33h-6.46v5.91c0,.83-.52,1.35-1.35,1.35h-1.38v-17.37Z"/>
    <path class="cls-3" d="M172.08,47.97c0-4.96,3.68-9.04,8.95-9.04s8.99,4.08,8.99,9.04-3.7,9.04-8.99,9.04-8.95-4.06-8.95-9.04ZM181.03,54.66c3.58,0,6.27-3.04,6.27-6.69s-2.68-6.69-6.27-6.69-6.22,3.09-6.22,6.69,2.66,6.69,6.22,6.69Z"/>
    <path class="cls-3" d="M193.04,49.73v-10.44h1.38c.83,0,1.35.52,1.35,1.35v8.99c0,3.99,2.92,5.01,4.68,5.01s4.65-1.02,4.65-5.01v-8.99c0-.83.55-1.35,1.35-1.35h1.35v10.44c0,4.41-2.89,7.26-7.36,7.26s-7.4-2.85-7.4-7.26Z"/>
    <path class="cls-3" d="M211.59,39.28h.95l11.46,12.01v-10.61c0-.85.55-1.4,1.4-1.4h1.33v17.37h-.97l-11.44-12.01v10.61c0,.85-.55,1.4-1.38,1.4h-1.35v-17.37Z"/>
    <path class="cls-3" d="M230.53,39.28h6.76c5.17,0,8.66,3.01,8.66,8.69s-3.46,8.71-8.66,8.69h-6.76v-17.37ZM237.03,54.38c2.33,0,6.17-1.02,6.17-6.38s-3.87-6.46-6.17-6.46h-3.77v12.84h3.77Z"/>
    <path class="cls-3" d="M254.85,39.28h.85l8.64,17.37h-1.95c-.69,0-1.23-.33-1.54-.95l-1.12-2.35h-8.9l-1.14,2.35c-.29.62-.85.95-1.54.95h-1.92l8.62-17.37ZM258.86,51.32l-3.58-7.64-3.56,7.64h7.14Z"/>
    <path class="cls-3" d="M267.26,41.56h-5.13v-.93c0-.83.52-1.35,1.35-1.35h11.68v.93c0,.81-.55,1.35-1.35,1.35h-3.82v13.74c0,.83-.55,1.35-1.35,1.35h-1.38v-15.09Z"/>
    <path class="cls-3" d="M276.94,55.21v-15.92h1.38c.81,0,1.35.52,1.35,1.35v16.02h-1.38c-.85,0-1.35-.52-1.35-1.45Z"/>
    <path class="cls-3" d="M282.94,47.97c0-4.96,3.68-9.04,8.95-9.04s8.99,4.08,8.99,9.04-3.7,9.04-8.99,9.04-8.95-4.06-8.95-9.04ZM291.89,54.66c3.58,0,6.27-3.04,6.27-6.69s-2.68-6.69-6.27-6.69-6.22,3.09-6.22,6.69,2.66,6.69,6.22,6.69Z"/>
    <path class="cls-3" d="M303.89,39.28h.95l11.46,12.01v-10.61c0-.85.55-1.4,1.4-1.4h1.33v17.37h-.97l-11.44-12.01v10.61c0,.85-.55,1.4-1.38,1.4h-1.35v-17.37Z"/>
    <path class="cls-3" d="M159.41,82.08l.72-.85c.54-.69,1.37-.76,2.29-.36,1.63.76,3.58,1.28,5.55,1.28,2.98,0,4.64-1.09,4.64-2.75,0-2.02-2.46-2.42-5.29-2.9-2.49-.4-7.9-.9-7.9-4.87s4.38-5.17,7.78-5.17c3.06,0,5.47.78,7.44,1.99l-.72.83c-.54.69-1.4.81-2.29.45-1.49-.62-2.95-.95-4.61-.95-1.75,0-4.32.59-4.32,2.73s3.55,2.4,5.87,2.75c3.09.43,7.33,1.12,7.33,5.03,0,3.46-3.21,5.17-7.81,5.17-3.86,0-6.47-.97-8.67-2.4Z"/>
    <path class="cls-3" d="M178.78,83.03v-15.92h1.66c.97,0,1.63.52,1.63,1.35v16.02h-1.66c-1.03,0-1.63-.52-1.63-1.45Z"/>
    <path class="cls-3" d="M192.49,75.88l-7.87-8.78h2.83c.74,0,1.4.26,1.83.78l5.18,6,5.12-6c.46-.52,1.06-.78,1.8-.78h2.86l-7.81,8.78,7.7,8.59h-2.89c-.77,0-1.37-.26-1.83-.78l-4.95-5.79-5.01,5.79c-.43.52-1.06.78-1.8.78h-2.86l7.7-8.59Z"/>
    <path class="cls-3" d="M209.77,69.38h-6.18v-.93c0-.83.63-1.35,1.63-1.35h14.08v.93c0,.81-.66,1.35-1.63,1.35h-4.61v13.74c0,.83-.66,1.35-1.63,1.35h-1.66v-15.09Z"/>
    <path class="cls-3" d="M227.31,84.48v-6.6l-7.9-10.77h2.58c.8,0,1.43.31,1.83.88l5.09,7.29,5.07-7.29c.4-.59,1.03-.88,1.89-.88h2.52l-7.76,10.77v5.13c0,.95-.6,1.47-1.75,1.47h-1.57Z"/>
    <path class="cls-3" d="M239.71,79.28c-.17-1.59.2-2.9,1.09-4.53.6-1,3.12-4.13,5.41-6.81.54-.59,1.17-.85,2.03-.85h2.63l-5.84,6.57c1.03-.69,2.15-.83,3.15-.83,3.92,0,6.84,2.49,6.84,5.84,0,3.56-3.43,6.05-7.73,6.05s-7.3-2.54-7.58-5.43ZM247.32,82.46c2.43,0,4.44-1.61,4.44-3.75s-1.98-3.75-4.44-3.75-4.41,1.66-4.41,3.75,2.03,3.75,4.41,3.75Z"/>
  </g>
</svg>