<?xml version="1.0" encoding="UTF-8"?>
<svg id="Layer_1" data-name="Layer 1" xmlns="http://www.w3.org/2000/svg" viewBox="0 0 216.22 83.64">
  <defs>
    <style>
      .cls-1 {
        fill: #fde0c6;
      }

      .cls-1, .cls-2, .cls-3 {
        stroke-width: 0px;
      }

      .cls-2 {
        fill: #f38e27;
      }

      .cls-3 {
        fill: #fff;
      }
    </style>
  </defs>
  <rect class="cls-1" x="0" y="0" width="92.61" height="83.64" rx="27.7" ry="27.7"/>
  <path class="cls-2" d="M11.58,41.86c.94,8.01,8.64,9.4,8.64,9.4l8.82.34c-4.93.94-5.68,4.87-5.68,4.87v18.25c25.3-1.86,23.1-23.46,23.1-23.46-.37-33.64-34.88-35.25-34.88-35.25v25.85Z"/>
  <path class="cls-3" d="M81.2,41.86c-.94,8.01-8.64,9.4-8.64,9.4l-8.82.34c4.93.94,5.68,4.87,5.68,4.87v18.25c-25.3-1.86-23.1-23.46-23.1-23.46.37-33.64,34.88-35.25,34.88-35.25v25.85Z"/>
  <circle class="cls-2" cx="46.28" cy="15.86" r="5.7"/>
  <g>
    <path class="cls-2" d="M108.04,26.63h8.17v.66c0,.56-.32.88-.9.88h-5.42v3.78h5.28v.63c0,.58-.32.9-.9.9h-4.38v4.01c0,.56-.35.92-.92.92h-.93v-11.77Z"/>
    <path class="cls-2" d="M116.63,32.51c0-3.36,2.49-6.13,6.06-6.13s6.1,2.77,6.1,6.13-2.51,6.13-6.1,6.13-6.06-2.75-6.06-6.13ZM122.69,37.05c2.43,0,4.25-2.06,4.25-4.54s-1.82-4.54-4.25-4.54-4.21,2.09-4.21,4.54,1.8,4.54,4.21,4.54Z"/>
    <path class="cls-2" d="M130.83,33.7v-7.08h.93c.56,0,.92.35.92.92v6.1c0,2.7,1.98,3.39,3.17,3.39s3.15-.69,3.15-3.39v-6.1c0-.56.37-.92.92-.92h.92v7.08c0,2.99-1.96,4.92-4.99,4.92s-5.02-1.93-5.02-4.92Z"/>
    <path class="cls-2" d="M143.41,26.63h.64l7.77,8.14v-7.19c0-.58.37-.95.95-.95h.9v11.77h-.66l-7.75-8.14v7.19c0,.58-.37.95-.93.95h-.92v-11.77Z"/>
    <path class="cls-2" d="M156.24,26.63h4.58c3.51,0,5.87,2.04,5.87,5.89s-2.35,5.9-5.87,5.89h-4.58v-11.77ZM160.65,36.86c1.58,0,4.18-.69,4.18-4.33s-2.62-4.38-4.18-4.38h-2.56v8.7h2.56Z"/>
    <path class="cls-2" d="M172.72,26.63h.58l5.85,11.77h-1.32c-.47,0-.84-.23-1.05-.64l-.76-1.59h-6.03l-.77,1.59c-.19.42-.58.64-1.05.64h-1.3l5.84-11.77ZM175.44,34.78l-2.43-5.18-2.41,5.18h4.84Z"/>
    <path class="cls-2" d="M181.13,28.17h-3.47v-.63c0-.56.35-.92.92-.92h7.91v.63c0,.55-.37.92-.92.92h-2.59v9.31c0,.56-.37.92-.92.92h-.93v-10.23Z"/>
    <path class="cls-2" d="M187.69,37.42v-10.79h.93c.55,0,.92.35.92.92v10.86h-.93c-.58,0-.92-.35-.92-.98Z"/>
    <path class="cls-2" d="M191.76,32.51c0-3.36,2.49-6.13,6.06-6.13s6.1,2.77,6.1,6.13-2.51,6.13-6.1,6.13-6.06-2.75-6.06-6.13ZM197.83,37.05c2.43,0,4.25-2.06,4.25-4.54s-1.82-4.54-4.25-4.54-4.21,2.09-4.21,4.54,1.8,4.54,4.21,4.54Z"/>
    <path class="cls-2" d="M205.96,26.63h.64l7.77,8.14v-7.19c0-.58.37-.95.95-.95h.9v11.77h-.66l-7.75-8.14v7.19c0,.58-.37.95-.93.95h-.92v-11.77Z"/>
    <path class="cls-2" d="M108.04,55.63l.48-.58c.37-.47.93-.51,1.55-.24,1.11.51,2.42.87,3.76.87,2.02,0,3.14-.74,3.14-1.87,0-1.37-1.67-1.64-3.59-1.96-1.69-.27-5.35-.61-5.35-3.3s2.97-3.51,5.28-3.51c2.08,0,3.7.53,5.04,1.35l-.48.56c-.37.47-.95.55-1.55.31-1.01-.42-2-.64-3.12-.64-1.18,0-2.93.4-2.93,1.85s2.41,1.62,3.98,1.87c2.09.29,4.97.76,4.97,3.41,0,2.35-2.17,3.51-5.29,3.51-2.62,0-4.38-.66-5.88-1.62Z"/>
    <path class="cls-2" d="M121.17,56.27v-10.79h1.13c.66,0,1.11.35,1.11.92v10.86h-1.12c-.7,0-1.11-.35-1.11-.98Z"/>
    <path class="cls-2" d="M130.46,51.43l-5.33-5.95h1.92c.5,0,.95.18,1.24.53l3.51,4.07,3.47-4.07c.31-.35.72-.53,1.22-.53h1.94l-5.29,5.95,5.22,5.82h-1.96c-.52,0-.93-.18-1.24-.53l-3.36-3.92-3.39,3.92c-.29.35-.72.53-1.22.53h-1.94l5.22-5.82Z"/>
    <path class="cls-2" d="M142.17,47.02h-4.19v-.63c0-.56.43-.92,1.11-.92h9.54v.63c0,.55-.45.92-1.11.92h-3.12v9.31c0,.56-.45.92-1.11.92h-1.12v-10.23Z"/>
    <path class="cls-2" d="M154.06,57.25v-4.47l-5.35-7.3h1.75c.54,0,.97.21,1.24.6l3.45,4.94,3.43-4.94c.27-.4.7-.6,1.28-.6h1.71l-5.26,7.3v3.47c0,.64-.41,1-1.18,1h-1.07Z"/>
    <path class="cls-2" d="M162.46,53.73c-.12-1.08.14-1.96.74-3.07.41-.68,2.11-2.8,3.67-4.62.37-.4.8-.58,1.38-.58h1.78l-3.96,4.46c.7-.47,1.46-.56,2.13-.56,2.66,0,4.64,1.69,4.64,3.96,0,2.41-2.33,4.1-5.24,4.1s-4.95-1.72-5.14-3.68ZM167.62,55.89c1.65,0,3.01-1.09,3.01-2.54s-1.34-2.54-3.01-2.54-2.99,1.13-2.99,2.54,1.38,2.54,2.99,2.54Z"/>
  </g>
</svg>