<?xml version="1.0" encoding="UTF-8"?>
<svg id="Layer_1" data-name="Layer 1" xmlns="http://www.w3.org/2000/svg" viewBox="0 0 136.64 123.4">
  <defs>
    <style>
      .cls-1 {
        opacity: .3;
      }

      .cls-1, .cls-2, .cls-3 {
        stroke-width: 0px;
      }

      .cls-1, .cls-3 {
        fill: #582260;
      }

      .cls-2 {
        fill: #fff;
      }
    </style>
  </defs>
  <rect class="cls-1" x="0" y="0" width="136.64" height="123.4" rx="40.1" ry="40.1"/>
  <path class="cls-3" d="M17.08,61.76c1.39,11.82,12.75,13.87,12.75,13.87l13.02.5c-7.27,1.39-8.38,7.19-8.38,7.19v26.93c37.32-2.74,34.08-34.62,34.08-34.62-.54-49.63-51.46-52-51.46-52v38.13Z"/>
  <path class="cls-2" d="M119.81,61.76c-1.39,11.82-12.75,13.87-12.75,13.87l-13.02.5c7.27,1.39,8.38,7.19,8.38,7.19v26.93c-37.32-2.74-34.08-34.62-34.08-34.62.54-49.63,51.46-52,51.46-52v38.13Z"/>
  <circle class="cls-3" cx="68.28" cy="23.4" r="8.41"/>
</svg>