<?xml version="1.0" encoding="UTF-8"?>
<svg id="Layer_1" data-name="Layer 1" xmlns="http://www.w3.org/2000/svg" viewBox="0 0 91.16 82.33">
  <defs>
    <style>
      .cls-1 {
        fill: #fde0c6;
      }

      .cls-1, .cls-2, .cls-3 {
        stroke-width: 0px;
      }

      .cls-2 {
        fill: #f38e27;
      }

      .cls-3 {
        fill: #fff;
      }
    </style>
  </defs>
  <rect class="cls-1" x="0" y="0" width="91.16" height="82.33" rx="27.7" ry="27.7"/>
  <path class="cls-2" d="M11.4,41.2c.93,7.89,8.51,9.25,8.51,9.25l8.68.34c-4.85.93-5.59,4.79-5.59,4.79v17.97c24.9-1.83,22.73-23.1,22.73-23.1C45.37,17.34,11.4,15.76,11.4,15.76v25.44Z"/>
  <path class="cls-3" d="M79.93,41.2c-.93,7.89-8.51,9.25-8.51,9.25l-8.68.34c4.85.93,5.59,4.79,5.59,4.79v17.97c-24.9-1.83-22.73-23.1-22.73-23.1.36-33.11,34.33-34.69,34.33-34.69v25.44Z"/>
  <circle class="cls-2" cx="45.55" cy="15.61" r="5.61"/>
</svg>