<?xml version="1.0" encoding="UTF-8"?>
<svg id="Layer_2" data-name="Layer 2" xmlns="http://www.w3.org/2000/svg" viewBox="0 0 595.28 562.98">
  <defs>
    <style>
      .cls-1 {
        fill: #7a2b85;
      }

      .cls-1, .cls-2 {
        stroke-width: 0px;
      }

      .cls-2 {
        fill: #fff;
      }
    </style>
  </defs>
  <g id="Layer_1-2" data-name="Layer 1-2">
    <rect class="cls-1" x="49.12" y="36.25" width="497.04" height="500.16"/>
    <path class="cls-2" d="m176.85,114.45c-14.54-12.19-29.73-23.44-45.64-33.71-11.76-7.66-59.2-34.31-72.51-41.92l.68,62.93c3.47,96.64,62.5,207.82,165.85,222.45l2.57-6.33c-48.6-34.99-75.72-86.03-87.74-141.68,33.45,24.47,65.11,51.72,90.65,83.72,6.89,8.21,13.22,17.07,18.39,26.31l-.13.64h.47c6.03,10.91,10.48,22.37,12.58,34.18,0,.13-.04.26,0,.38.21,6.5,0,12.36-4.11,20.62-3.42,6.89-7.57,13.26-12.36,20.62-4.79,7.4-13.43,16.08-18.69,22.42-.26.3-.77.94-1.54,1.93-.77.98-1.28,1.58-1.54,1.93,4.19-11.08,14.97-22.59,13.56-38.63-.81-8.94-8.26-16.51-12.36-20.62-.39-.38-.94-.73-1.54-1.07,0,0-.04,0-.09-.04h0s-.17-.09-.26-.13c-2.7-1.33-6.8-2.87-11.21-3.55-42.14-12.41-89.96,2.52-118.11,37.17-30.93,37.99-42.95,86.11-40.98,133.64l2.22,42.26,38.03-14.93c46.5-18.14,88.25-48.47,125.98-81.02,28.96-25.03,56.81-53.39,69.13-90.73,30.16-94.2-44.36-180.4-111.27-236.82h-.04Zm33.02,272.58c-.64,4.92-2.22,10.05-4.83,15.31-2.57,5.26-5.99,10.31-10.22,15.06-4.36,4.92-9.03,8.98-13.95,12.19s-9.8,5.43-14.54,6.67c-4.79,1.28-9.37,1.58-13.82.94-4.45-.64-8.3-2.44-11.59-5.3-3.25-2.91-5.56-6.5-6.84-10.82-1.28-4.32-1.63-8.94-1.07-13.95.6-5.01,2.18-10.18,4.75-15.57s6.07-10.57,10.44-15.49,9.07-8.94,14.12-12.06c5.05-3.08,10.01-5.26,14.89-6.42,4.88-1.2,9.5-1.33,13.86-.47s8.13,2.65,11.29,5.48c3.29,2.91,5.52,6.46,6.72,10.69s1.5,8.81.86,13.73h-.04Z"/>
    <path class="cls-2" d="m304.55,351.27c12.32,37.35,40.17,65.71,69.13,90.73,37.69,32.55,79.44,62.93,125.98,81.02l38.03,14.93,2.22-42.26c1.97-47.53-10.05-95.69-40.85-133.64-28.15-34.65-75.97-49.58-118.11-37.17-4.36.68-8.51,2.22-11.21,3.55-.09,0-.17.04-.26.09h0s-.04.09-.09.09c-.6.3-1.15.68-1.54,1.07-4.11,4.11-11.59,11.72-12.36,20.62-1.41,16,9.37,27.51,13.56,38.63-.26-.3-.81-.94-1.54-1.93-.77-.98-1.28-1.58-1.54-1.93-5.22-6.33-13.86-15.02-18.69-22.42-4.79-7.4-8.94-13.77-12.36-20.62-4.11-8.26-4.32-14.16-4.11-20.62v-.38c2.1-11.76,6.55-23.27,12.58-34.18h.47l-.13-.64c5.18-9.28,11.51-18.14,18.39-26.31,25.54-32.04,57.19-59.29,90.65-83.72-12.02,55.65-39.14,106.69-87.74,141.68l2.57,6.33c103.31-14.63,162.34-125.81,165.85-222.45l.68-62.93c-13.3,7.57-60.7,34.22-72.47,41.92-15.96,10.27-31.14,21.52-45.64,33.71-66.95,56.42-141.47,142.62-111.27,236.82h-.21Zm79.14,22.03c1.2-4.24,3.42-7.79,6.72-10.69,3.17-2.82,6.93-4.62,11.29-5.48s8.98-.68,13.86.47c4.88,1.15,9.84,3.34,14.89,6.42,5.05,3.12,9.71,7.1,14.12,12.06,4.41,4.96,7.87,10.1,10.44,15.49,2.61,5.39,4.19,10.61,4.75,15.57.56,5.01.21,9.63-1.07,13.95-1.28,4.32-3.59,7.91-6.84,10.82-3.29,2.91-7.14,4.66-11.59,5.3s-9.07.34-13.82-.94c-4.79-1.24-9.63-3.51-14.54-6.67-4.92-3.21-9.58-7.27-13.95-12.19-4.24-4.79-7.66-9.8-10.22-15.06-2.57-5.26-4.19-10.4-4.83-15.31s-.34-9.54.86-13.73h-.04Z"/>
  </g>
</svg>